<?xml version="1.0" encoding="UTF-8" standalone="no"?>
<svg width="41px" height="51px" viewBox="0 0 41 51" version="1.1" xmlns="http://www.w3.org/2000/svg" xmlns:xlink="http://www.w3.org/1999/xlink" xmlns:sketch="http://www.bohemiancoding.com/sketch/ns">
    <!-- Generator: Sketch 3.3 (11970) - http://www.bohemiancoding.com/sketch -->
    <title>calendar</title>
    <desc>Created with Sketch.</desc>
    <defs></defs>
    <g id="Page-1" stroke="none" stroke-width="1" fill="none" fill-rule="evenodd" sketch:type="MSPage">
        <g id="AttachmentIcons" sketch:type="MSArtboardGroup" transform="translate(-335.000000, -188.000000)">
            <g id="calendar" sketch:type="MSLayerGroup" transform="translate(335.000000, 188.000000)">
                <g sketch:type="MSShapeGroup">
                    <g id="XLS-Copy-3" transform="translate(0.929577, 0.609045)">
                        <g id="PDF">
                            <path d="M39.9295775,47.8198191 C39.9295775,48.9069816 39.1205063,49.7887324 38.1211722,49.7887324 L1.8100804,49.7887324 C0.809769139,49.7887324 0,48.9069816 0,47.8198191 L0,1.96742088 C0,0.880122699 0.809769139,0 1.8100804,0 L30.5105148,0 L39.9295775,10.4126371 L39.9295775,47.8198191 Z" id="Shape" fill="#A1A1A1"></path>
                            <path d="M30.5341556,0.0158450697 L30.404887,8.45215437 C30.3879631,9.55663988 31.2738603,10.4604324 32.3788569,10.4619325 L39.9367435,10.4520023 L30.5341556,0.0158450697 Z" id="Path-18" fill="#868686"></path>
                        </g>
                    </g>
                    <g id="CALENDAR" transform="translate(11.000000, 16.000000)" fill="#FFFFFF">
                        <g id="Group">
                            <path d="M19.0853968,2.96321918 L16.2968254,2.96321918 L16.2968254,1.15283562 C16.2968254,0.651876712 15.8873016,0.245123288 15.3822222,0.245123288 C14.8771429,0.245123288 14.467619,0.651561644 14.467619,1.15283562 L14.467619,2.96321918 L5.66063492,2.96321918 L5.66063492,1.15283562 C5.66063492,0.651876712 5.25111111,0.245123288 4.74603175,0.245123288 C4.24095238,0.245123288 3.83142857,0.651561644 3.83142857,1.15283562 L3.83142857,2.96321918 L1.04285714,2.96321918 C0.538095238,2.96321918 0.128253968,3.36965753 0.128253968,3.87093151 L0.128253968,21.7775342 C0.128253968,22.2784932 0.537777778,22.6852466 1.04285714,22.6852466 L19.0853968,22.6852466 C19.5904762,22.6849315 20,22.2784932 20,21.7772192 L20,3.87093151 C20,3.3699726 19.5904762,2.96321918 19.0853968,2.96321918 L19.0853968,2.96321918 Z M18.1711111,20.8698219 L1.95746032,20.8698219 L1.95746032,4.77832877 L3.83174603,4.77832877 L3.83174603,5.94187671 C3.83174603,6.44283562 4.24126984,6.84958904 4.74634921,6.84958904 C5.25142857,6.84958904 5.66095238,6.44315068 5.66095238,5.94187671 L5.66095238,4.77832877 L14.468254,4.77832877 L14.468254,5.94187671 C14.468254,6.44283562 14.8777778,6.84958904 15.3828571,6.84958904 C15.8879365,6.84958904 16.2974603,6.44315068 16.2974603,5.94187671 L16.2974603,4.77832877 L18.171746,4.77832877 L18.171746,20.8698219 L18.1711111,20.8698219 Z" id="Shape"></path>
                            <ellipse id="Oval" cx="4.74634921" cy="10.8519041" rx="0.841587302" ry="0.835246575"></ellipse>
                            <ellipse id="Oval" cx="8.29142857" cy="10.8519041" rx="0.841587302" ry="0.835246575"></ellipse>
                            <ellipse id="Oval" cx="11.8371429" cy="10.8519041" rx="0.841587302" ry="0.835246575"></ellipse>
                            <ellipse id="Oval" cx="15.3825397" cy="10.8519041" rx="0.841587302" ry="0.835246575"></ellipse>
                            <ellipse id="Oval" cx="4.74634921" cy="13.9190959" rx="0.841587302" ry="0.835246575"></ellipse>
                            <ellipse id="Oval" cx="8.29142857" cy="13.9190959" rx="0.841587302" ry="0.835246575"></ellipse>
                            <ellipse id="Oval" cx="11.8371429" cy="13.9190959" rx="0.841587302" ry="0.835246575"></ellipse>
                            <ellipse id="Oval" cx="15.3825397" cy="13.9190959" rx="0.841587302" ry="0.835246575"></ellipse>
                            <ellipse id="Oval" cx="4.74634921" cy="16.9862877" rx="0.841587302" ry="0.835246575"></ellipse>
                            <ellipse id="Oval" cx="8.29142857" cy="16.9862877" rx="0.841587302" ry="0.835246575"></ellipse>
                            <ellipse id="Oval" cx="11.8371429" cy="16.9862877" rx="0.841587302" ry="0.835246575"></ellipse>
                            <ellipse id="Oval" cx="15.3825397" cy="16.9862877" rx="0.841587302" ry="0.835246575"></ellipse>
                        </g>
                    </g>
                </g>
            </g>
        </g>
    </g>
</svg>