<?xml version="1.0" encoding="UTF-8" standalone="no"?>
<svg width="41px" height="51px" viewBox="0 0 41 51" version="1.1" xmlns="http://www.w3.org/2000/svg" xmlns:xlink="http://www.w3.org/1999/xlink" xmlns:sketch="http://www.bohemiancoding.com/sketch/ns">
    <!-- Generator: Sketch 3.3 (11970) - http://www.bohemiancoding.com/sketch -->
    <title>XLS Copy</title>
    <desc>Created with Sketch.</desc>
    <defs></defs>
    <g id="Page-1" stroke="none" stroke-width="1" fill="none" fill-rule="evenodd" sketch:type="MSPage">
        <g id="AttachmentIcons" sketch:type="MSArtboardGroup" transform="translate(-285.000000, -85.000000)">
            <g id="XLS-Copy" sketch:type="MSLayerGroup" transform="translate(285.000000, 85.000000)">
                <g sketch:type="MSShapeGroup">
                    <g transform="translate(0.500000, 0.859155)">
                        <g id="PDF">
                            <path d="M39.9295775,47.8198191 C39.9295775,48.9069816 39.1205063,49.7887324 38.1211722,49.7887324 L1.8100804,49.7887324 C0.809769139,49.7887324 0,48.9069816 0,47.8198191 L0,1.96742088 C0,0.880122699 0.809769139,0 1.8100804,0 L30.5105148,0 L39.9295775,10.4126371 L39.9295775,47.8198191 Z" id="Shape" fill="#4CE580"></path>
                            <path d="M30.5341556,0.0158450697 L30.404887,8.45215437 C30.3879631,9.55663988 31.2738603,10.4604324 32.3788569,10.4619325 L39.9367435,10.4520023 L30.5341556,0.0158450697 Z" id="Path-18" fill="#109E2F"></path>
                        </g>
                        <g id="Group" transform="translate(9.500000, 15.000000)" stroke="#FFFFFF" stroke-width="2">
                            <rect id="Rectangle-306" x="0" y="0" width="21" height="20" rx="2"></rect>
                            <path d="M1.43181818,7 L19.0909091,7" id="Line" stroke-linecap="square"></path>
                            <path d="M1.43181818,13 L19.0909091,13" id="Line-Copy" stroke-linecap="square"></path>
                            <path d="M6.68181818,1 L6.68181818,19" id="Line" stroke-linecap="square"></path>
                        </g>
                    </g>
                </g>
            </g>
        </g>
    </g>
</svg>