<?xml version="1.0" encoding="UTF-8" standalone="no"?>
<svg width="41px" height="51px" viewBox="0 0 41 51" version="1.1" xmlns="http://www.w3.org/2000/svg" xmlns:xlink="http://www.w3.org/1999/xlink" xmlns:sketch="http://www.bohemiancoding.com/sketch/ns">
    <!-- Generator: Sketch 3.3 (11970) - http://www.bohemiancoding.com/sketch -->
    <title>EXE</title>
    <desc>Created with Sketch.</desc>
    <defs></defs>
    <g id="Page-1" stroke="none" stroke-width="1" fill="none" fill-rule="evenodd" sketch:type="MSPage">
        <g id="AttachmentIcons" sketch:type="MSArtboardGroup" transform="translate(-514.000000, -188.000000)">
            <g id="EXE" sketch:type="MSLayerGroup" transform="translate(514.000000, 188.000000)">
                <g transform="translate(0.218310, 0.609045)" sketch:type="MSShapeGroup">
                    <g id="PDF">
                        <path d="M39.9295775,47.8198191 C39.9295775,48.9069816 39.1205063,49.7887324 38.1211722,49.7887324 L1.8100804,49.7887324 C0.809769139,49.7887324 0,48.9069816 0,47.8198191 L0,1.96742088 C0,0.880122699 0.809769139,0 1.8100804,0 L30.5105148,0 L39.9295775,10.4126371 L39.9295775,47.8198191 Z" id="Shape" fill="#C2C2C2"></path>
                        <path d="M30.5341556,0.0158450697 L30.404887,8.45215437 C30.3879631,9.55663988 31.2738603,10.4604324 32.3788569,10.4619325 L39.9367435,10.4520023 L30.5341556,0.0158450697 Z" id="Path-18" fill="#919191"></path>
                    </g>
                    <path d="M18.891392,17.5454545 L17.6413138,20.0456108 L16.5087431,20.4368853 L13.8910795,19.4205717 L12.0159623,21.2956889 L13.0322758,23.9133525 L12.6410013,25.0459233 L10.1408451,26.2960015 L10.1408451,28.7961577 L12.6410013,30.0462358 C12.7660091,30.4212593 12.8985174,30.8037832 13.1485331,31.1788066 L12.0159623,33.7964702 L13.8910795,35.6715874 L16.5087431,34.6552739 L17.6413138,35.0465484 L18.891392,37.5467046 L21.3915482,37.5467046 L22.6416264,35.0465484 C23.0166498,34.9215406 23.3991737,34.7890323 23.7741972,34.5390166 L26.3918608,35.5553302 L28.266978,33.680213 L27.2506644,31.0625494 C27.3756722,30.6875259 27.6331883,30.305002 27.7581962,29.9299786 L30.1408451,28.7974078 L30.1408451,26.2972515 L27.6406888,25.0471734 C27.515681,24.67215 27.3831727,24.2896261 27.1331571,23.9146026 L28.2657279,21.296939 L26.3906107,19.4218218 L23.7729471,20.4381353 L22.6403763,20.0468609 L21.3902982,17.5467046 L18.8901419,17.5467046 L18.891392,17.5454545 Z M20.1408451,22.3860797 C23.064845,22.3860797 25.3008449,24.6220797 25.3008449,27.5460796 C25.3008449,30.4700795 23.064845,32.7060794 20.1408451,32.7060794 C17.2168452,32.7060794 14.9808452,30.4700795 14.9808452,27.5460796 C14.9808452,24.6220797 17.2168452,22.3860797 20.1408451,22.3860797 L20.1408451,22.3860797 Z" id="Shape" fill="#FFFFFF"></path>
                </g>
            </g>
        </g>
    </g>
</svg>