<?xml version="1.0" encoding="UTF-8" standalone="no"?>
<svg width="103px" height="20px" viewBox="0 0 103 20" version="1.1" xmlns="http://www.w3.org/2000/svg" xmlns:xlink="http://www.w3.org/1999/xlink" xmlns:sketch="http://www.bohemiancoding.com/sketch/ns">
    <!-- Generator: Sketch 3.3 (11970) - http://www.bohemiancoding.com/sketch -->
    <title>Mailcup</title>
    <desc>Created with Sketch.</desc>
    <defs></defs>
    <g id="Welcome" stroke="none" stroke-width="1" fill="none" fill-rule="evenodd" sketch:type="MSPage">
        <g id="Inbox" sketch:type="MSArtboardGroup" transform="translate(-18.000000, -22.000000)" fill="#FFCB00">
            <g id="Mailcup-+-Polygon-1" sketch:type="MSLayerGroup" transform="translate(18.000000, 22.000000)">
                <path d="M31.6967884,5.03169435 L31.6967884,14.4194178 C31.6967884,14.9388991 31.5756225,15.3285043 31.3332872,15.588245 C31.0909518,15.8479857 30.7694584,15.9778541 30.3687973,15.9778541 C29.9810608,15.9778541 29.664414,15.8495317 29.4188475,15.5928832 C29.1732811,15.3362347 29.0504997,14.9450834 29.0504997,14.4194178 L29.0504997,3.65878618 C29.0504997,3.06509319 29.2120541,2.66466564 29.5351679,2.45749153 C29.8582817,2.25031741 30.2944788,2.14673191 30.8437722,2.14673191 L31.7355618,2.14673191 C32.2719307,2.14673191 32.661277,2.19311348 32.9036123,2.28587801 C33.1459477,2.37864254 33.3252731,2.54561618 33.4415941,2.78680396 C33.5579151,3.02799174 33.6903897,3.42068902 33.8390221,3.96490759 L35.9037089,11.1036777 L37.9683957,3.96490759 C38.117028,3.42068902 38.2495027,3.02799174 38.3658236,2.78680396 C38.4821446,2.54561618 38.6614701,2.37864254 38.9038054,2.28587801 C39.1461408,2.19311348 39.535487,2.14673191 40.0718559,2.14673191 L40.9636455,2.14673191 C41.512939,2.14673191 41.949136,2.25031741 42.2722498,2.45749153 C42.5953636,2.66466564 42.7569181,3.06509319 42.7569181,3.65878618 L42.7569181,14.4194178 C42.7569181,14.9388991 42.6357522,15.3285043 42.3934169,15.588245 C42.1510816,15.8479857 41.8263571,15.9778541 41.4192337,15.9778541 C41.0379594,15.9778541 40.7245437,15.8479857 40.4789773,15.588245 C40.2334108,15.3285043 40.1106294,14.9388991 40.1106294,14.4194178 L40.1106294,5.03169435 L37.8326886,12.1449361 C37.6840562,12.7077076 37.5628904,13.1205035 37.4691874,13.3833364 C37.3754844,13.6461692 37.2026211,13.8858073 36.9505923,14.1022579 C36.6985636,14.3187084 36.3496059,14.4269321 35.9037089,14.4269321 C35.5676705,14.4269321 35.2833347,14.3573598 35.0506927,14.218213 C34.8180508,14.0790662 34.6371098,13.9012702 34.5078643,13.6848196 C34.3786188,13.468369 34.2768394,13.2287309 34.2025233,12.9658981 C34.1282071,12.7030652 34.0522765,12.429414 33.9747292,12.1449361 L31.6967884,5.03169435 Z M52.2176426,14.2496931 C51.5778773,14.730695 50.9591236,15.091441 50.3613631,15.331942 C49.7636026,15.5724429 49.0931515,15.6926916 48.3499898,15.6926916 C47.6714509,15.6926916 47.0753149,15.5630729 46.5615639,15.3038316 C46.047813,15.0445903 45.6520046,14.6932144 45.3741267,14.2496931 C45.0962488,13.8061719 44.957312,13.3251773 44.957312,12.8066947 C44.957312,12.1070556 45.1867193,11.5104973 45.6455409,11.0170018 C46.1043625,10.5235064 46.734425,10.1924321 47.5357471,10.0237691 C47.7037663,9.98628848 48.1205769,9.90195824 48.7861913,9.77077591 C49.4518057,9.63959358 50.022093,9.51934491 50.4970702,9.4100263 C50.9720475,9.30070769 51.4874063,9.16796566 52.043162,9.01179621 C52.0108506,8.33714422 51.8702982,7.84209451 51.6215006,7.52663224 C51.372703,7.21116996 50.8573442,7.05344119 50.0754088,7.05344119 C49.4033322,7.05344119 48.8976667,7.14401811 48.5583972,7.32517466 C48.2191277,7.50633122 47.9283297,7.77806197 47.6859943,8.14037508 C47.443659,8.50268819 47.2724112,8.74162385 47.172246,8.85718924 C47.0720807,8.97275463 46.8572132,9.03053645 46.5276372,9.03053645 C46.2303725,9.03053645 45.9735009,8.93839786 45.7570146,8.75411792 C45.5405284,8.56983798 45.4322869,8.33402566 45.4322869,8.04667388 C45.4322869,7.59690589 45.5970725,7.159638 45.9266485,6.73485712 C46.2562246,6.31007623 46.7699678,5.96026193 47.4678936,5.68540371 C48.1658194,5.41054549 49.0349824,5.27311844 50.0754088,5.27311844 C51.2386185,5.27311844 52.1530168,5.40586048 52.8186312,5.67134853 C53.4842456,5.93683658 53.9543691,6.35692608 54.2290158,6.93162963 C54.5036626,7.50633318 54.6409839,8.26842863 54.6409839,9.21793885 C54.6409839,9.81762951 54.6393683,10.3267343 54.6361372,10.7452684 C54.632906,11.1638025 54.6280594,11.6291804 54.6215971,12.1414162 C54.6215971,12.6224181 54.7039899,13.1237145 54.8687779,13.6453204 C55.033566,14.1669264 55.1159588,14.5026856 55.1159588,14.6526083 C55.1159588,14.914973 54.9883307,15.1539086 54.7330708,15.3694225 C54.4778109,15.5849363 54.1886284,15.6926916 53.8655146,15.6926916 C53.5940991,15.6926916 53.3259186,15.5693196 53.0609653,15.3225719 C52.796012,15.0758241 52.5149072,14.7182015 52.2176426,14.2496931 L52.2176426,14.2496931 Z M52.043162,10.5484958 C51.6554254,10.685925 51.0916003,10.8311604 50.3516697,10.9842064 C49.6117392,11.1372525 49.0996115,11.2496928 48.8152714,11.3215307 C48.5309312,11.3933687 48.2595197,11.5339191 48.0010287,11.7431861 C47.7425376,11.9524532 47.6132941,12.2444856 47.6132941,12.6192923 C47.6132941,13.0065925 47.7651553,13.3361051 48.0688822,13.6078399 C48.3726092,13.8795748 48.7700332,14.0154401 49.2611662,14.0154401 C49.7846105,14.0154401 50.2676584,13.9045615 50.7103243,13.6828009 C51.1529902,13.4610403 51.4777146,13.1752545 51.6845075,12.8254349 C51.9236117,12.4381347 52.043162,11.800973 52.043162,10.9139305 L52.043162,10.5484958 Z M59.9723347,6.74422724 L59.9723347,14.1372517 C59.9723347,14.6494875 59.8463223,15.0367819 59.5942935,15.2991466 C59.3422647,15.5615112 59.0223869,15.6926916 58.6346503,15.6926916 C58.2469138,15.6926916 57.9318826,15.5583879 57.6895472,15.2897764 C57.4472119,15.021165 57.326046,14.6369939 57.326046,14.1372517 L57.326046,6.8191882 C57.326046,6.3131992 57.4472119,5.93215148 57.6895472,5.67603359 C57.9318826,5.4199157 58.2469138,5.29185868 58.6346503,5.29185868 C59.0223869,5.29185868 59.3422647,5.4199157 59.5942935,5.67603359 C59.8463223,5.93215148 59.9723347,6.28821247 59.9723347,6.74422724 L59.9723347,6.74422724 Z M58.6637304,4.10185348 C58.2953807,4.10185348 57.9803495,3.99253651 57.7186273,3.77389929 C57.4569052,3.55526207 57.326046,3.24605121 57.326046,2.84625743 C57.326046,2.48394432 57.4601362,2.18566516 57.7283207,1.951411 C57.9965051,1.71715683 58.3083053,1.60003151 58.6637304,1.60003151 C59.006231,1.60003151 59.3099535,1.70622514 59.5749068,1.91861558 C59.8398601,2.13100602 59.9723347,2.44021688 59.9723347,2.84625743 C59.9723347,3.23980443 59.8430912,3.54745362 59.5846001,3.76921423 C59.3261091,3.99097483 59.0191556,4.10185348 58.6637304,4.10185348 L58.6637304,4.10185348 Z M62.7058637,14.1372517 L62.7058637,3.04302995 C62.7058637,2.53079417 62.8237985,2.14349976 63.0596716,1.8811351 C63.2955446,1.61877044 63.6138069,1.48759007 64.014468,1.48759007 C64.4151291,1.48759007 64.7382381,1.61720876 64.9838046,1.87645004 C65.229371,2.13569132 65.3521524,2.5245474 65.3521524,3.04302995 L65.3521524,14.1372517 C65.3521524,14.6557343 65.2277555,15.0445903 64.9789579,15.3038316 C64.7301603,15.5630729 64.4086669,15.6926916 64.014468,15.6926916 C63.6267315,15.6926916 63.3117003,15.5583879 63.0693649,15.2897764 C62.8270296,15.021165 62.7058637,14.6369939 62.7058637,14.1372517 L62.7058637,14.1372517 Z M77.575486,12.5255911 C77.575486,12.8441768 77.4769378,13.1846211 77.2798384,13.5469342 C77.0827389,13.9092473 76.7822476,14.2543766 76.3783554,14.5823324 C75.9744632,14.9102882 75.4655666,15.1742106 74.8516504,15.3741075 C74.2377342,15.5740044 73.546281,15.6739513 72.7772702,15.6739513 C71.1423144,15.6739513 69.8660341,15.2132584 68.9483909,14.2918587 C68.0307478,13.370459 67.5719331,12.1351772 67.5719331,10.5859763 C67.5719331,9.53651767 67.7819539,8.60888509 68.2020018,7.80305077 C68.6220497,6.99721644 69.2294946,6.37410971 70.0243545,5.93371188 C70.8192144,5.49331405 71.7691547,5.27311844 72.8742039,5.27311844 C73.5592051,5.27311844 74.187652,5.36994204 74.7595634,5.56359215 C75.3314748,5.75724226 75.8161382,6.00710962 76.2135682,6.31320173 C76.6109981,6.61929384 76.9147205,6.94568308 77.1247445,7.29237924 C77.3347685,7.63907541 77.4397789,7.96234131 77.4397789,8.26218664 C77.4397789,8.56827874 77.3218441,8.82751613 77.0859711,9.03990657 C76.850098,9.25229702 76.5641466,9.35849064 76.2281082,9.35849064 C76.0083909,9.35849064 75.8258343,9.30383216 75.6804331,9.19451355 C75.5350319,9.08519494 75.3718619,8.90872612 75.1909181,8.66510178 C74.8678044,8.19034668 74.5301555,7.83428569 74.1779615,7.59690813 C73.8257675,7.35953058 73.3782616,7.24084359 72.8354304,7.24084359 C72.053495,7.24084359 71.4234326,7.53599941 70.9452242,8.1263199 C70.4670158,8.71664039 70.2279152,9.5240243 70.2279152,10.5484958 C70.2279152,11.0294977 70.2893058,11.4714506 70.4120891,11.8743678 C70.5348723,12.277285 70.7125822,12.6208526 70.9452242,12.905081 C71.1778661,13.1893093 71.4589709,13.4048199 71.788547,13.5516192 C72.118123,13.6984185 72.480005,13.771817 72.8742039,13.771817 C73.4041105,13.771817 73.8580785,13.65313 74.2361217,13.4157525 C74.6141648,13.1783749 74.9485826,12.8160673 75.239385,12.3288186 C75.4009419,12.0414668 75.5754207,11.8165862 75.7628267,11.65417 C75.9502327,11.4917538 76.17964,11.4105469 76.4510556,11.4105469 C76.7741694,11.4105469 77.0423498,11.5292339 77.2556049,11.7666114 C77.46886,12.003989 77.575486,12.2569797 77.575486,12.5255911 L77.575486,12.5255911 Z M86.7551029,14.2496931 L86.7551029,13.921739 C86.4384514,14.3090392 86.1056491,14.6338667 85.7566862,14.8962314 C85.4077234,15.1585961 85.0264548,15.3538049 84.6128692,15.4818639 C84.1992835,15.6099228 83.7275444,15.6739513 83.1976378,15.6739513 C82.5578725,15.6739513 81.9843541,15.5458943 81.4770655,15.2897764 C80.9697768,15.0336585 80.5771995,14.6807209 80.2993216,14.2309529 C79.9697456,13.6874832 79.80496,12.9066477 79.80496,11.888423 L79.80496,6.8191882 C79.80496,6.30695242 79.9245103,5.92434303 80.1636145,5.67134853 C80.4027187,5.41835403 80.7193655,5.29185868 81.1135643,5.29185868 C81.5142254,5.29185868 81.8373343,5.4199157 82.0829008,5.67603359 C82.3284673,5.93215148 82.4512487,6.3131992 82.4512487,6.8191882 L82.4512487,10.9139305 C82.4512487,11.5073744 82.5029461,12.0055475 82.6063425,12.4084646 C82.709739,12.8113818 82.8955266,13.1268393 83.163711,13.3548467 C83.4318955,13.5828541 83.7953931,13.6968561 84.2542146,13.6968561 C84.7001117,13.6968561 85.1201533,13.5687991 85.5143521,13.3126812 C85.9085509,13.0565633 86.1961179,12.7223657 86.3770616,12.3100784 C86.525694,11.9477653 86.600009,11.1544364 86.600009,9.93006795 L86.600009,6.8191882 C86.600009,6.3131992 86.7227904,5.93215148 86.9683569,5.67603359 C87.2139234,5.4199157 87.5338012,5.29185868 87.9280001,5.29185868 C88.3221989,5.29185868 88.6388456,5.41835403 88.8779499,5.67134853 C89.1170541,5.92434303 89.2366044,6.30695242 89.2366044,6.8191882 L89.2366044,14.2309529 C89.2366044,14.7182016 89.1219007,15.0836326 88.8924899,15.3272569 C88.6630791,15.5708812 88.3674344,15.6926916 88.005547,15.6926916 C87.6436595,15.6926916 87.3447838,15.5661962 87.1089107,15.3132017 C86.8730376,15.0602072 86.7551029,14.7057079 86.7551029,14.2496931 L86.7551029,14.2496931 Z M94.3159277,6.725487 L94.3159277,7.03470095 C94.813523,6.44125707 95.3304973,6.00555086 95.8668662,5.72756925 C96.4032351,5.44958764 97.0106799,5.31059892 97.6892188,5.31059892 C98.5034656,5.31059892 99.2530783,5.51361615 99.9380796,5.9196567 C100.623081,6.32569726 101.164288,6.91913224 101.561718,7.69997945 C101.959148,8.48082667 102.15786,9.4053359 102.15786,10.4735349 C102.15786,11.2606289 102.043157,11.9836826 101.813746,12.6427176 C101.584335,13.3017527 101.269304,13.8545842 100.868643,14.3012288 C100.467982,14.7478734 99.9946269,15.091441 99.4485646,15.331942 C98.9025023,15.5724429 98.3160596,15.6926916 97.6892188,15.6926916 C96.9331326,15.6926916 96.2982235,15.5458945 95.7844726,15.252296 C95.2707217,14.9586974 94.7812116,14.5276762 94.3159277,13.9592194 L94.3159277,17.8009685 C94.3159277,18.9253885 93.892655,19.4875901 93.0460969,19.4875901 C92.5485017,19.4875901 92.2189305,19.3423547 92.0573736,19.0518795 C91.8958168,18.7614043 91.8150395,18.3381915 91.8150395,17.7822283 L91.8150395,6.74422724 C91.8150395,6.25697858 91.9248966,5.89310923 92.1446139,5.65260829 C92.3643313,5.41210735 92.6648226,5.29185868 93.0460969,5.29185868 C93.4209089,5.29185868 93.7262468,5.41523069 93.9621199,5.66197841 C94.197993,5.90872613 94.3159277,6.26322545 94.3159277,6.725487 L94.3159277,6.725487 Z M99.5018781,10.4454245 C99.5018781,9.77077254 99.3952522,9.1913926 99.1819971,8.70726732 C98.968742,8.22314205 98.6730973,7.85146435 98.2950542,7.59222308 C97.917011,7.3329818 97.498585,7.20336311 97.0397634,7.20336311 C96.3095262,7.20336311 95.6940037,7.48134055 95.1931773,8.03730376 C94.6923509,8.59326698 94.4419415,9.41158259 94.4419415,10.4922751 C94.4419415,11.5104999 94.6907354,12.3022671 95.1883306,12.8676005 C95.6859259,13.4329339 96.3030639,13.7155963 97.0397634,13.7155963 C97.4791981,13.7155963 97.8863154,13.5922243 98.2611274,13.3454766 C98.6359394,13.0987289 98.9364307,12.7286128 99.1626104,12.2351174 C99.38879,11.741622 99.5018781,11.1450636 99.5018781,10.4454245 Z M21.6516732,8.25927353 C22.2057056,9.2135841 22.2029281,10.7656114 21.6516732,11.7151378 L17.8988689,18.1792736 C17.3448365,19.1335842 15.9918855,19.9072057 14.8893756,19.9072057 L7.3837671,19.9072057 C6.27570226,19.9072057 4.92552872,19.1288 4.3742738,18.1792736 L0.621469537,11.7151378 C0.067437119,10.7608272 0.0702146214,9.2087999 0.621469537,8.25927353 L4.3742738,1.79513773 C4.92830622,0.840827162 6.28125727,0.0672055911 7.3837671,0.0672055911 L14.8893756,0.0672055911 C15.9974405,0.0672055911 17.347614,0.845611359 17.8988689,1.79513773 L21.6516732,8.25927353 Z M8.43940613,7.40305749 L8.43940613,13.421833 C8.43940613,13.7548894 8.36172358,14.004678 8.20635614,14.1712062 C8.0509887,14.3377344 7.84487099,14.4209973 7.58799683,14.4209973 C7.33940893,14.4209973 7.13639852,14.3387257 6.97895952,14.1741799 C6.82152051,14.0096342 6.74280219,13.7588544 6.74280219,13.421833 L6.74280219,6.52284131 C6.74280219,6.14220538 6.84637893,5.88547823 7.05353551,5.75265215 C7.2606921,5.61982607 7.54034929,5.55341403 7.89251548,5.55341403 L8.46426479,5.55341403 C8.80814472,5.55341403 9.05776466,5.58315076 9.2131321,5.64262513 C9.36849954,5.70209949 9.48346972,5.80915174 9.55804609,5.96378509 C9.63262246,6.11841843 9.71755538,6.37018946 9.81284741,6.71910573 L11.1365714,11.2960039 L12.4602953,6.71910573 C12.5555873,6.37018946 12.6405203,6.11841843 12.7150966,5.96378509 C12.789673,5.80915174 12.9046432,5.70209949 13.0600106,5.64262513 C13.2153781,5.58315076 13.464998,5.55341403 13.8088779,5.55341403 L14.3806272,5.55341403 C14.7327934,5.55341403 15.0124506,5.61982607 15.2196072,5.75265215 C15.4267638,5.88547823 15.5303405,6.14220538 15.5303405,6.52284131 L15.5303405,13.421833 C15.5303405,13.7548894 15.452658,14.004678 15.2972905,14.1712062 C15.1419231,14.3377344 14.9337339,14.4209973 14.6727166,14.4209973 C14.4282718,14.4209973 14.2273329,14.3377344 14.0698939,14.1712062 C13.9124549,14.004678 13.8337366,13.7548894 13.8337366,13.421833 L13.8337366,7.40305749 L12.37329,11.9635886 C12.277998,12.3243998 12.2003154,12.5890567 12.14024,12.7575674 C12.0801646,12.9260781 11.9693375,13.0797179 11.8077553,13.2184914 C11.6461732,13.357265 11.4224474,13.4266507 11.1365714,13.4266507 C10.9211285,13.4266507 10.7388335,13.3820456 10.5896807,13.292834 C10.440528,13.2036225 10.324522,13.0896317 10.2416594,12.9508581 C10.1587968,12.8120846 10.0935434,12.6584448 10.0458974,12.4899341 C9.99825139,12.3214234 9.94957032,12.1459767 9.89985274,11.9635886 L8.43940613,7.40305749 Z" id="Mailcup" sketch:type="MSShapeGroup"></path>
            </g>
        </g>
    </g>
</svg>