<?xml version="1.0" encoding="UTF-8" standalone="no"?>
<svg width="95px" height="20px" viewBox="0 0 95 20" version="1.1" xmlns="http://www.w3.org/2000/svg" xmlns:xlink="http://www.w3.org/1999/xlink" xmlns:sketch="http://www.bohemiancoding.com/sketch/ns">
    <!-- Generator: Sketch 3.3 (11970) - http://www.bohemiancoding.com/sketch -->
    <title>Rectangle 7 Copy</title>
    <desc>Created with Sketch.</desc>
    <defs></defs>
    <g id="Welcome" stroke="none" stroke-width="1" fill="none" fill-rule="evenodd" sketch:type="MSPage">
        <g id="Inbox" sketch:type="MSArtboardGroup" transform="translate(-20.000000, -21.000000)" fill="#FFCB00">
            <path d="M20,23.9214834 C20,23.4979967 20.2265014,22.9075222 20.5686331,22.6440607 C20.5686331,22.6440607 21.3039216,21 29.5,21 C37.6960784,21 38.4474523,22.6549472 38.4474523,22.6549472 C38.752616,22.9309491 39,23.4952417 39,23.9214834 L39,33.6643775 C39,37.7157299 35.7121437,41 31.6676949,41 L27.3323051,41 C23.2827848,41 20,37.7268956 20,33.6643775 L20,23.9214834 Z M32.16,35.2881426 L33.6877157,35.2881426 L33.6877157,26.9603326 L31.9401015,26.9603326 L29.4054822,30.5412909 L26.8708629,26.9603326 L25.1116751,26.9603326 L25.1116751,35.2881426 L26.6393909,35.2881426 L26.6393909,29.232635 L29.2203046,32.8611808 L29.5212183,32.8611808 L32.16,29.2445319 L32.16,35.2881426 Z M50.173,24.862 L50.173,37 L52.672,37 L52.672,28.483 L52.706,28.483 L55.681,37 L57.738,37 L60.713,28.398 L60.747,28.398 L60.747,37 L63.246,37 L63.246,24.862 L59.489,24.862 L56.803,33.209 L56.769,33.209 L53.93,24.862 L50.173,24.862 Z M65.535,30.914 C65.5690002,30.3473305 65.7106654,29.8770019 65.96,29.503 C66.2093346,29.1289981 66.5266648,28.8286678 66.912,28.602 C67.2973353,28.3753322 67.7308309,28.2138338 68.2125,28.1175 C68.6941691,28.0211662 69.1786642,27.973 69.666,27.973 C70.1080022,27.973 70.5556644,28.0041664 71.009,28.0665 C71.4623356,28.1288336 71.8759981,28.2506658 72.25,28.432 C72.6240019,28.6133342 72.9299988,28.8654984 73.168,29.1885 C73.4060012,29.5115016 73.525,29.9393307 73.525,30.472 L73.525,35.045 C73.525,35.4416686 73.5476665,35.8213315 73.593,36.184 C73.6383336,36.5466685 73.7176661,36.8186658 73.831,37 L71.383,37 C71.3376665,36.8639993 71.3008335,36.7251674 71.2725,36.5835 C71.2441665,36.4418326 71.2243334,36.2973341 71.213,36.15 C70.8276648,36.5466686 70.374336,36.8243325 69.853,36.983 C69.3316641,37.1416675 68.7990027,37.221 68.255,37.221 C67.8356646,37.221 67.4446685,37.1700005 67.082,37.068 C66.7193315,36.9659995 66.4020014,36.8073344 66.13,36.592 C65.8579987,36.3766656 65.6455008,36.1046683 65.4925,35.776 C65.3394992,35.4473317 65.263,35.0563356 65.263,34.603 C65.263,34.1043308 65.3508325,33.6935016 65.5265,33.3705 C65.7021676,33.0474984 65.928832,32.7896676 66.2065,32.597 C66.4841681,32.4043324 66.8014982,32.2598338 67.1585,32.1635 C67.5155018,32.0671662 67.8753315,31.9906669 68.238,31.934 C68.6006685,31.877333 68.9576649,31.8320002 69.309,31.798 C69.6603351,31.7639998 69.9719987,31.7130003 70.244,31.645 C70.5160014,31.5769997 70.7313326,31.477834 70.89,31.3475 C71.0486675,31.217166 71.1223334,31.0273346 71.111,30.778 C71.111,30.517332 71.0685004,30.3105008 70.9835,30.1575 C70.8984996,30.0044992 70.7851674,29.8855004 70.6435,29.8005 C70.5018326,29.7154996 70.3375009,29.6588335 70.1505,29.6305 C69.9634991,29.6021665 69.7623344,29.588 69.547,29.588 C69.0709976,29.588 68.6970014,29.689999 68.425,29.894 C68.1529987,30.098001 67.9943336,30.4379976 67.949,30.914 L65.535,30.914 Z M71.111,32.699 C71.0089995,32.7896671 70.8815008,32.8604997 70.7285,32.9115 C70.5754992,32.9625003 70.4111676,33.0049998 70.2355,33.039 C70.0598325,33.0730002 69.8756676,33.1013332 69.683,33.124 C69.4903324,33.1466668 69.2976676,33.1749998 69.105,33.209 C68.9236658,33.2430002 68.7451676,33.2883331 68.5695,33.345 C68.3938325,33.401667 68.240834,33.4781662 68.1105,33.5745 C67.980166,33.6708338 67.8753337,33.7926659 67.796,33.94 C67.7166663,34.0873341 67.677,34.2743322 67.677,34.501 C67.677,34.7163344 67.7166663,34.8976659 67.796,35.045 C67.8753337,35.1923341 67.9829993,35.3084996 68.119,35.3935 C68.2550007,35.4785004 68.4136658,35.5379998 68.595,35.572 C68.7763343,35.6060002 68.9633324,35.623 69.156,35.623 C69.6320024,35.623 70.000332,35.5436675 70.261,35.385 C70.521668,35.2263325 70.7143327,35.0365011 70.839,34.8155 C70.9636673,34.5944989 71.0401665,34.3706678 71.0685,34.144 C71.0968335,33.9173322 71.111,33.7360007 71.111,33.6 L71.111,32.699 Z M78.177,26.851 L78.177,24.862 L75.763,24.862 L75.763,26.851 L78.177,26.851 Z M75.763,28.211 L75.763,37 L78.177,37 L78.177,28.211 L75.763,28.211 Z M80.449,24.862 L80.449,37 L82.863,37 L82.863,24.862 L80.449,24.862 Z M91.051,31.305 L93.414,31.305 C93.3799999,30.7383305 93.2440012,30.2481687 93.006,29.8345 C92.7679989,29.4208313 92.4591686,29.0751681 92.0795,28.7975 C91.6998315,28.5198319 91.2691691,28.3130007 90.7875,28.177 C90.305831,28.0409993 89.804336,27.973 89.283,27.973 C88.5689965,27.973 87.9343362,28.0919988 87.379,28.33 C86.8236639,28.5680012 86.3533353,28.8994979 85.968,29.3245 C85.5826648,29.7495021 85.2908344,30.2538304 85.0925,30.8375 C84.8941657,31.4211696 84.795,32.0529966 84.795,32.733 C84.795,33.3903366 84.9026656,33.9938306 85.118,34.5435 C85.3333345,35.0931694 85.6336648,35.5663313 86.019,35.963 C86.4043353,36.3596686 86.8718306,36.6684989 87.4215,36.8895 C87.9711695,37.1105011 88.5746634,37.221 89.232,37.221 C90.3993392,37.221 91.3569963,36.9150031 92.105,36.303 C92.8530038,35.6909969 93.3063326,34.8013392 93.465,33.634 L91.136,33.634 C91.0566663,34.1780027 90.8611683,34.6114984 90.5495,34.9345 C90.2378318,35.2575016 89.7930029,35.419 89.215,35.419 C88.8409982,35.419 88.523668,35.3340008 88.263,35.164 C88.0023321,34.9939991 87.7955008,34.7758347 87.6425,34.5095 C87.4894993,34.2431653 87.3790004,33.9456683 87.311,33.617 C87.2429997,33.2883317 87.209,32.9653349 87.209,32.648 C87.209,32.3193317 87.2429997,31.987835 87.311,31.6535 C87.3790004,31.319165 87.4951659,31.0131681 87.6595,30.7355 C87.8238342,30.4578319 88.0363321,30.2311675 88.297,30.0555 C88.557668,29.8798325 88.8806648,29.792 89.266,29.792 C90.2973385,29.792 90.8923326,30.2963283 91.051,31.305 L91.051,31.305 Z M103.37,37 L103.37,28.211 L100.956,28.211 L100.956,32.818 C100.956,33.7133378 100.808668,34.356498 100.514,34.7475 C100.219332,35.138502 99.7433367,35.334 99.0860001,35.334 C98.5079972,35.334 98.1056679,35.1555018 97.8790001,34.7985 C97.6523323,34.4414982 97.5390001,33.900337 97.5390001,33.175 L97.5390001,28.211 L95.1250001,28.211 L95.1250001,33.617 C95.1250001,34.1610027 95.1731662,34.6568311 95.2695001,35.1045 C95.3658339,35.5521689 95.5329989,35.9318318 95.7710001,36.2435 C96.0090012,36.5551682 96.3348313,36.7959991 96.7485001,36.966 C97.1621688,37.1360008 97.6919968,37.221 98.3380001,37.221 C98.8480026,37.221 99.3466643,37.1076678 99.8340001,36.881 C100.321336,36.6543322 100.717999,36.2860025 101.024,35.776 L101.075,35.776 L101.075,37 L103.37,37 Z M109.943,35.419 C109.557665,35.419 109.229001,35.3396675 108.957,35.181 C108.684999,35.0223325 108.466834,34.8155013 108.3025,34.5605 C108.138166,34.3054987 108.019167,34.0080017 107.9455,33.668 C107.871833,33.3279983 107.835,32.9823351 107.835,32.631 C107.835,32.2683315 107.869,31.9170017 107.937,31.577 C108.005,31.2369983 108.121166,30.936668 108.2855,30.676 C108.449834,30.415332 108.665165,30.2028342 108.9315,30.0385 C109.197835,29.8741658 109.529331,29.792 109.926,29.792 C110.311335,29.792 110.637165,29.8741658 110.9035,30.0385 C111.169835,30.2028342 111.387999,30.4181653 111.558,30.6845 C111.728001,30.9508347 111.849833,31.2539983 111.9235,31.594 C111.997167,31.9340017 112.034,32.2796649 112.034,32.631 C112.034,32.9823351 112,33.3279983 111.932,33.668 C111.864,34.0080017 111.747834,34.3054987 111.5835,34.5605 C111.419166,34.8155013 111.203835,35.0223325 110.9375,35.181 C110.671165,35.3396675 110.339669,35.419 109.943,35.419 L109.943,35.419 Z M105.506,28.211 L105.506,40.077 L107.92,40.077 L107.92,35.912 L107.954,35.912 C108.248668,36.3426688 108.625498,36.6684989 109.0845,36.8895 C109.543502,37.1105011 110.044997,37.221 110.589,37.221 C111.235003,37.221 111.798831,37.0963346 112.2805,36.847 C112.762169,36.5976654 113.164498,36.2633354 113.4875,35.844 C113.810502,35.4246646 114.051333,34.9430027 114.21,34.399 C114.368668,33.8549973 114.448,33.2883363 114.448,32.699 C114.448,32.0756635 114.368668,31.4778362 114.21,30.9055 C114.051333,30.3331638 113.807668,29.8316688 113.479,29.401 C113.150332,28.9703312 112.736669,28.624668 112.238,28.364 C111.739331,28.103332 111.144337,27.973 110.453,27.973 C109.908997,27.973 109.410336,28.0806656 108.957,28.296 C108.503664,28.5113344 108.129668,28.8569976 107.835,29.333 L107.801,29.333 L107.801,28.211 L105.506,28.211 Z" id="Rectangle-7-Copy" sketch:type="MSShapeGroup"></path>
        </g>
    </g>
</svg>