<?xml version="1.0" encoding="UTF-8" standalone="no"?>
<svg width="41px" height="51px" viewBox="0 0 41 51" version="1.1" xmlns="http://www.w3.org/2000/svg" xmlns:xlink="http://www.w3.org/1999/xlink" xmlns:sketch="http://www.bohemiancoding.com/sketch/ns">
    <!-- Generator: Sketch 3.3 (11970) - http://www.bohemiancoding.com/sketch -->
    <title>XLS Copy 4 + noun_21770_cc</title>
    <desc>Created with Sketch.</desc>
    <defs></defs>
    <g id="Page-1" stroke="none" stroke-width="1" fill="none" fill-rule="evenodd" sketch:type="MSPage">
        <g id="AttachmentIcons" sketch:type="MSArtboardGroup" transform="translate(-564.000000, -85.000000)">
            <g id="XLS-Copy-4-+-noun_21770_cc" sketch:type="MSLayerGroup" transform="translate(564.000000, 85.000000)">
                <g id="XLS-Copy-4" transform="translate(0.929577, 0.859155)" sketch:type="MSShapeGroup">
                    <g id="PDF">
                        <path d="M39.9295775,47.8198191 C39.9295775,48.9069816 39.1205063,49.7887324 38.1211722,49.7887324 L1.8100804,49.7887324 C0.809769139,49.7887324 0,48.9069816 0,47.8198191 L0,1.96742088 C0,0.880122699 0.809769139,0 1.8100804,0 L30.5105148,0 L39.9295775,10.4126371 L39.9295775,47.8198191 Z" id="Shape" fill="#F3D639"></path>
                        <path d="M30.5341556,0.0158450697 L30.404887,8.45215437 C30.3879631,9.55663988 31.2738603,10.4604324 32.3788569,10.4619325 L39.9367435,10.4520023 L30.5341556,0.0158450697 Z" id="Path-18" fill="#E0C327"></path>
                    </g>
                </g>
                <g id="noun_21770_cc" transform="translate(9.359155, 18.214366)" fill="#FFFFFF" sketch:type="MSShapeGroup">
                    <path d="M22.4306525,5.61018574 L19.3732841,2.00257675 C18.6290745,1.12470338 17.2748723,0.462816901 16.2224266,0.462816901 L14.1404448,0.462816901 L14.1332711,0.462816901 L9.23828817,0.462816901 L9.23273437,0.462816901 L6.91818704,0.462816901 C5.86597282,0.462816901 4.51153915,1.12470338 3.76732958,2.00257675 L0.709729718,5.61018574 C0.252003803,6.15056253 0,6.87088289 0,7.63844184 C0,8.40572774 0.252003803,9.12577503 0.710192535,9.66669794 L9.85152056,20.4523894 C10.3097093,20.9927662 10.9201648,21.2895775 11.5701911,21.2895775 C12.2209117,21.2895775 12.8311358,20.9924931 13.2890931,20.4523894 L22.4306525,9.66642488 C22.8886099,9.12577503 23.1408451,8.40545468 23.1408451,7.63816878 C23.1408451,6.87088289 22.8883785,6.15056253 22.4306525,5.61018574 L22.4306525,5.61018574 Z M6.29639254,8.81640318 L9.10222,16.2355936 L2.81392676,8.81640318 L6.29639254,8.81640318 L6.29639254,8.81640318 Z M13.4533931,2.81901263 L14.7115608,6.46020745 L8.48412803,6.46020745 L9.86309099,2.81901263 L13.4533931,2.81901263 L13.4533931,2.81901263 Z M14.6576427,8.81640318 L11.5701911,16.9804889 L8.48297099,8.81640318 L14.6576427,8.81640318 L14.6576427,8.81640318 Z M16.8439897,8.81640318 L20.3264555,8.81640318 L14.0386251,16.2361397 L16.8439897,8.81640318 L16.8439897,8.81640318 Z M17.9612297,3.66876128 L20.3269183,6.46020745 L16.8680562,6.46020745 L15.609657,2.81901263 L16.2221952,2.81901263 C16.7461039,2.81901263 17.5909762,3.23187252 17.9612297,3.66876128 L17.9612297,3.66876128 Z M5.17938394,3.66876128 C5.54940606,3.23187252 6.39450972,2.81928569 6.91795563,2.81928569 L7.67581831,2.81928569 L6.29685535,6.4604805 L2.81369535,6.4604805 L5.17938394,3.66876128 L5.17938394,3.66876128 Z" id="Shape"></path>
                </g>
            </g>
        </g>
    </g>
</svg>