<?xml version="1.0" encoding="UTF-8" standalone="no"?>
<svg width="41px" height="51px" viewBox="0 0 41 51" version="1.1" xmlns="http://www.w3.org/2000/svg" xmlns:xlink="http://www.w3.org/1999/xlink" xmlns:sketch="http://www.bohemiancoding.com/sketch/ns">
    <!-- Generator: Sketch 3.3 (11970) - http://www.bohemiancoding.com/sketch -->
    <title>ZIP</title>
    <desc>Created with Sketch.</desc>
    <defs></defs>
    <g id="Page-1" stroke="none" stroke-width="1" fill="none" fill-rule="evenodd" sketch:type="MSPage">
        <g id="AttachmentIcons" sketch:type="MSArtboardGroup" transform="translate(-138.000000, -187.000000)">
            <g id="ZIP" sketch:type="MSLayerGroup" transform="translate(138.000000, 187.000000)">
                <g transform="translate(0.859155, 0.859155)" sketch:type="MSShapeGroup">
                    <g id="PDF">
                        <path d="M39.9295775,47.8198191 C39.9295775,48.9069816 39.1205063,49.7887324 38.1211722,49.7887324 L1.8100804,49.7887324 C0.809769139,49.7887324 0,48.9069816 0,47.8198191 L0,1.96742088 C0,0.880122699 0.809769139,0 1.8100804,0 L30.5105148,0 L39.9295775,10.4126371 L39.9295775,47.8198191 Z" id="Shape" fill="#A6B7C6"></path>
                        <path d="M30.5341556,0.0158450697 L30.404887,8.45215437 C30.3879631,9.55663988 31.2738603,10.4604324 32.3788569,10.4619325 L39.9367435,10.4520023 L30.5341556,0.0158450697 Z" id="Path-18" fill="#8596A5"></path>
                    </g>
                    <g id="Group" transform="translate(15.000000, 1.000000)" fill="#FFFFFF">
                        <path d="M4.63571429,20.5669014 C4.37454728,20.5669014 4.11338028,20.4363179 3.91750503,20.2404427 C3.72162978,20.0445674 3.59104628,19.7834004 3.59104628,19.5222334 C3.59104628,19.2610664 3.72162978,18.9998994 3.91750503,18.8040241 C4.30925553,18.4122736 5.02746479,18.4122736 5.41921529,18.8040241 C5.61509054,18.9998994 5.74567404,19.2610664 5.74567404,19.5222334 C5.74567404,19.7834004 5.61509054,20.0445674 5.41921529,20.2404427 C5.22334004,20.4363179 4.96217304,20.5669014 4.63571429,20.5669014 L4.63571429,20.5669014 Z" id="Shape"></path>
                        <path d="M7.57384306,12.7971831 L5.68038229,12.7971831 L5.68038229,11.5566398 L7.05150905,11.5566398 C7.63913481,11.5566398 8.09617706,11.0995976 8.09617706,10.5119718 C8.09617706,9.92434608 7.63913481,9.46730382 7.05150905,9.46730382 L5.68038229,9.46730382 L5.68038229,7.96559356 L7.05150905,7.96559356 C7.63913481,7.96559356 8.09617706,7.50855131 8.09617706,6.92092555 C8.09617706,6.3332998 7.70442656,5.87625755 7.1168008,5.87625755 L5.74567404,5.87625755 L5.74567404,4.37454728 L7.1168008,4.37454728 C7.70442656,4.37454728 8.16146881,3.91750503 8.16146881,3.32987928 C8.16146881,2.74225352 7.70442656,2.28521127 7.1168008,2.28521127 L5.74567404,2.28521127 L5.74567404,1.50171026 C5.74567404,0.914084507 5.28863179,0.457042254 4.70100604,0.457042254 L2.28521127,0.457042254 C1.69758551,0.457042254 1.24054326,0.914084507 1.24054326,1.50171026 C1.24054326,2.08933602 1.69758551,2.54637827 2.28521127,2.54637827 L3.65633803,2.54637827 L3.65633803,4.04808853 L2.28521127,4.04808853 C1.69758551,4.04808853 1.24054326,4.50513078 1.24054326,5.09275654 C1.24054326,5.68038229 1.69758551,6.13742455 2.28521127,6.13742455 L3.65633803,6.13742455 L3.65633803,7.63913481 L2.28521127,7.63913481 C1.69758551,7.63913481 1.24054326,8.09617706 1.24054326,8.68380282 C1.24054326,9.27142857 1.69758551,9.72847082 2.28521127,9.72847082 L3.65633803,9.72847082 L3.65633803,12.7971831 L1.63229376,12.7971831 C1.04466801,12.7971831 0.587625755,13.2542254 0.587625755,13.8418511 L0.587625755,22.5909457 C0.587625755,23.1785714 1.04466801,23.6356137 1.63229376,23.6356137 L7.63913481,23.6356137 C8.22676056,23.6356137 8.68380282,23.1785714 8.68380282,22.5909457 L8.68380282,13.8418511 C8.61851107,13.3195171 8.16146881,12.7971831 7.57384306,12.7971831 L7.57384306,12.7971831 Z M6.52917505,21.5462777 L2.61167002,21.5462777 L2.61167002,14.8865191 L6.52917505,14.8865191 L6.52917505,21.5462777 L6.52917505,21.5462777 Z" id="Shape"></path>
                    </g>
                </g>
            </g>
        </g>
    </g>
</svg>