<?xml version="1.0" encoding="UTF-8" standalone="no"?>
<svg width="41px" height="51px" viewBox="0 0 41 51" version="1.1" xmlns="http://www.w3.org/2000/svg" xmlns:xlink="http://www.w3.org/1999/xlink" xmlns:sketch="http://www.bohemiancoding.com/sketch/ns">
    <!-- Generator: Sketch 3.3 (11970) - http://www.bohemiancoding.com/sketch -->
    <title>AI</title>
    <desc>Created with Sketch.</desc>
    <defs></defs>
    <g id="Page-1" stroke="none" stroke-width="1" fill="none" fill-rule="evenodd" sketch:type="MSPage">
        <g id="AttachmentIcons" sketch:type="MSArtboardGroup" transform="translate(-464.000000, -85.000000)">
            <g id="AI" sketch:type="MSLayerGroup" transform="translate(464.000000, 85.000000)">
                <g transform="translate(0.929577, 0.859155)" sketch:type="MSShapeGroup">
                    <g id="PDF">
                        <path d="M39.9295775,47.8198191 C39.9295775,48.9069816 39.1205063,49.7887324 38.1211722,49.7887324 L1.8100804,49.7887324 C0.809769139,49.7887324 0,48.9069816 0,47.8198191 L0,1.96742088 C0,0.880122699 0.809769139,0 1.8100804,0 L30.5105148,0 L39.9295775,10.4126371 L39.9295775,47.8198191 Z" id="Shape" fill="#FF653C"></path>
                        <path d="M30.5341556,0.0158450697 L30.404887,8.45215437 C30.3879631,9.55663988 31.2738603,10.4604324 32.3788569,10.4619325 L39.9367435,10.4520023 L30.5341556,0.0158450697 Z" id="Path-18" fill="#C65334"></path>
                    </g>
                    <path d="M21.0927734,30 L20.0263672,27.2753906 L16.5927734,27.2753906 L15.5380859,30 L14.5302734,30 L17.9169922,21.3984375 L18.7548828,21.3984375 L22.1240234,30 L21.0927734,30 Z M19.7158203,26.3789062 L18.7197266,23.7246094 C18.5908197,23.3886702 18.4580085,22.9765649 18.3212891,22.4882812 C18.2353511,22.8632831 18.1123055,23.2753884 17.9521484,23.7246094 L16.9443359,26.3789062 L19.7158203,26.3789062 Z M23.3017578,30 L23.3017578,21.4335938 L24.2978516,21.4335938 L24.2978516,30 L23.3017578,30 Z" fill="#FFFFFF"></path>
                </g>
            </g>
        </g>
    </g>
</svg>