<?xml version="1.0" encoding="UTF-8" standalone="no"?>
<svg width="41px" height="51px" viewBox="0 0 41 51" version="1.1" xmlns="http://www.w3.org/2000/svg" xmlns:xlink="http://www.w3.org/1999/xlink" xmlns:sketch="http://www.bohemiancoding.com/sketch/ns">
    <!-- Generator: Sketch 3.3 (11970) - http://www.bohemiancoding.com/sketch -->
    <title>AUDIO</title>
    <desc>Created with Sketch.</desc>
    <defs></defs>
    <g id="Page-1" stroke="none" stroke-width="1" fill="none" fill-rule="evenodd" sketch:type="MSPage">
        <g id="AttachmentIcons" sketch:type="MSArtboardGroup" transform="translate(-185.000000, -187.000000)">
            <g id="AUDIO" sketch:type="MSLayerGroup" transform="translate(185.000000, 187.000000)">
                <g transform="translate(0.859155, 0.859155)" sketch:type="MSShapeGroup">
                    <g id="PDF">
                        <path d="M39.9295775,47.8198191 C39.9295775,48.9069816 39.1205063,49.7887324 38.1211722,49.7887324 L1.8100804,49.7887324 C0.809769139,49.7887324 0,48.9069816 0,47.8198191 L0,1.96742088 C0,0.880122699 0.809769139,0 1.8100804,0 L30.5105148,0 L39.9295775,10.4126371 L39.9295775,47.8198191 Z" id="Shape" fill="#FC6363"></path>
                        <path d="M30.5341556,0.0158450697 L30.404887,8.45215437 C30.3879631,9.55663988 31.2738603,10.4604324 32.3788569,10.4619325 L39.9367435,10.4520023 L30.5341556,0.0158450697 Z" id="Path-18" fill="#CF4E4E"></path>
                    </g>
                    <g id="noun_10891_cc" transform="translate(8.929577, 17.089425)" fill="#FFFFFF">
                        <path d="M18.6166331,0.482721216 C18.3363926,0.251271183 17.9661945,0.156129667 17.6097188,0.225046278 L6.22506059,2.41055667 C5.6505522,2.52094523 5.23522289,3.02348759 5.23522289,3.60836396 L5.23522289,12.2894174 C4.82324793,12.1338976 4.37925419,12.0448549 3.91360966,12.0448549 C1.83970758,12.0448549 0.152470378,13.7320921 0.152470378,15.8059942 C0.152470378,17.8798963 1.83970758,19.5671335 3.91360966,19.5671335 C5.98751174,19.5671335 7.67474894,17.8798963 7.67474894,15.8059942 L7.67474894,4.6164981 L16.6198811,2.8993767 L16.6198811,10.1042119 C16.2079061,9.94869215 15.7639124,9.85964945 15.2982678,9.85964945 C13.2243658,9.85964945 11.5371285,11.5468867 11.5371285,13.6207887 C11.5371285,15.6946908 13.2243658,17.381928 15.2982678,17.381928 C17.3721699,17.381928 19.0594071,15.6946908 19.0594071,13.6207887 L19.0594071,1.42315851 C19.0594071,1.05936419 18.8971786,0.71447619 18.6166331,0.482721216 L18.6166331,0.482721216 Z M3.91360966,17.1279124 C3.18480125,17.1279124 2.59199642,16.5351075 2.59199642,15.8062991 C2.59199642,15.0774907 3.18480125,14.4846859 3.91360966,14.4846859 C4.64241806,14.4846859 5.23522289,15.0774907 5.23522289,15.8062991 C5.23522289,16.5351075 4.64241806,17.1279124 3.91360966,17.1279124 L3.91360966,17.1279124 Z M15.2982678,14.942402 C14.5694594,14.942402 13.9766546,14.3495971 13.9766546,13.6207887 C13.9766546,12.8919803 14.5694594,12.2991755 15.2982678,12.2991755 C16.0270762,12.2991755 16.6198811,12.8919803 16.6198811,13.6207887 C16.6198811,14.3495971 16.0270762,14.942402 15.2982678,14.942402 L15.2982678,14.942402 Z" id="Shape"></path>
                    </g>
                </g>
            </g>
        </g>
    </g>
</svg>