<?xml version="1.0" encoding="UTF-8" standalone="no"?>
<svg width="41px" height="51px" viewBox="0 0 41 51" version="1.1" xmlns="http://www.w3.org/2000/svg" xmlns:xlink="http://www.w3.org/1999/xlink" xmlns:sketch="http://www.bohemiancoding.com/sketch/ns">
    <!-- Generator: Sketch 3.3 (11970) - http://www.bohemiancoding.com/sketch -->
    <title>doc</title>
    <desc>Created with Sketch.</desc>
    <defs></defs>
    <g id="Page-1" stroke="none" stroke-width="1" fill="none" fill-rule="evenodd" sketch:type="MSPage">
        <g id="AttachmentIcons" sketch:type="MSArtboardGroup" transform="translate(-185.000000, -85.000000)">
            <g id="doc" sketch:type="MSLayerGroup" transform="translate(185.000000, 85.000000)">
                <g transform="translate(0.859155, 0.859155)" sketch:type="MSShapeGroup">
                    <g id="PDF">
                        <path d="M39.9295775,47.8198191 C39.9295775,48.9069816 39.1205063,49.7887324 38.1211722,49.7887324 L1.8100804,49.7887324 C0.809769139,49.7887324 0,48.9069816 0,47.8198191 L0,1.96742088 C0,0.880122699 0.809769139,0 1.8100804,0 L30.5105148,0 L39.9295775,10.4126371 L39.9295775,47.8198191 Z" id="Shape" fill="#6E9FD9"></path>
                        <path d="M30.5341556,0.0158450697 L30.404887,8.45215437 C30.3879631,9.55663988 31.2738603,10.4604324 32.3788569,10.4619325 L39.9367435,10.4520023 L30.5341556,0.0158450697 Z" id="Path-18" fill="#2C71C1"></path>
                    </g>
                    <path d="M6.5,15.5 C6.5,14.6715729 7.17165598,14 7.99710104,14 L15.002899,14 C15.829725,14 16.5,14.6657972 16.5,15.5 C16.5,16.3284271 15.828344,17 15.002899,17 L7.99710104,17 C7.17027497,17 6.5,16.3342028 6.5,15.5 Z M6.5,22.5 C6.5,21.6715729 7.16741943,21 7.99009652,21 L32.0099035,21 C32.8328611,21 33.5,21.6657972 33.5,22.5 C33.5,23.3284271 32.8325806,24 32.0099035,24 L7.99009652,24 C7.16713894,24 6.5,23.3342028 6.5,22.5 Z M6.5,29.5 C6.5,28.6715729 7.16741943,28 7.99009652,28 L32.0099035,28 C32.8328611,28 33.5,28.6657972 33.5,29.5 C33.5,30.3284271 32.8325806,31 32.0099035,31 L7.99009652,31 C7.16713894,31 6.5,30.3342028 6.5,29.5 Z M6.5,36.5 C6.5,35.6715729 7.16741943,35 7.99009652,35 L32.0099035,35 C32.8328611,35 33.5,35.6657972 33.5,36.5 C33.5,37.3284271 32.8325806,38 32.0099035,38 L7.99009652,38 C7.16713894,38 6.5,37.3342028 6.5,36.5 Z" id="Rectangle-298" fill="#FFFFFF"></path>
                </g>
            </g>
        </g>
    </g>
</svg>