<?xml version="1.0" encoding="UTF-8" standalone="no"?>
<svg width="40px" height="51px" viewBox="0 0 40 51" version="1.1" xmlns="http://www.w3.org/2000/svg" xmlns:xlink="http://www.w3.org/1999/xlink" xmlns:sketch="http://www.bohemiancoding.com/sketch/ns">
    <!-- Generator: Sketch 3.3 (11970) - http://www.bohemiancoding.com/sketch -->
    <title>XLS Copy 2</title>
    <desc>Created with Sketch.</desc>
    <defs></defs>
    <g id="Page-1" stroke="none" stroke-width="1" fill="none" fill-rule="evenodd" sketch:type="MSPage">
        <g id="AttachmentIcons" sketch:type="MSArtboardGroup" transform="translate(-384.000000, -85.000000)">
            <g id="XLS-Copy-2" sketch:type="MSLayerGroup" transform="translate(384.000000, 85.000000)">
                <g transform="translate(0.070423, 0.859155)" sketch:type="MSShapeGroup">
                    <g id="PDF">
                        <path d="M39.9295775,47.8198191 C39.9295775,48.9069816 39.1205063,49.7887324 38.1211722,49.7887324 L1.8100804,49.7887324 C0.809769139,49.7887324 0,48.9069816 0,47.8198191 L0,1.96742088 C0,0.880122699 0.809769139,0 1.8100804,0 L30.5105148,0 L39.9295775,10.4126371 L39.9295775,47.8198191 Z" id="Shape" fill="#54C9FE"></path>
                        <path d="M30.5341556,0.0158450697 L30.404887,8.45215437 C30.3879631,9.55663988 31.2738603,10.4604324 32.3788569,10.4619325 L39.9367435,10.4520023 L30.5341556,0.0158450697 Z" id="Path-18" fill="#0296F8"></path>
                    </g>
                    <path d="M16.3652344,29.5 L15.1933594,29.5 L12.0703125,25.3457031 L11.1738281,26.1425781 L11.1738281,29.5 L10.1777344,29.5 L10.1777344,20.9335938 L11.1738281,20.9335938 L11.1738281,25.1816406 L15.0585938,20.9335938 L16.2363281,20.9335938 L12.7910156,24.6542969 L16.3652344,29.5 Z M22.3183594,29.5 L17.5429688,29.5 L17.5429688,20.9335938 L22.3183594,20.9335938 L22.3183594,21.8183594 L18.5390625,21.8183594 L18.5390625,24.578125 L22.0898438,24.578125 L22.0898438,25.4570312 L18.5390625,25.4570312 L18.5390625,28.609375 L22.3183594,28.609375 L22.3183594,29.5 Z M26.3964844,25.2167969 L28.6816406,20.9335938 L29.7597656,20.9335938 L26.9003906,26.1777344 L26.9003906,29.5 L25.8925781,29.5 L25.8925781,26.2246094 L23.0390625,20.9335938 L24.1289062,20.9335938 L26.3964844,25.2167969 Z" id="KEY" fill="#FFFFFF"></path>
                </g>
            </g>
        </g>
    </g>
</svg>