<?xml version="1.0" encoding="UTF-8" standalone="no"?>
<svg width="41px" height="51px" viewBox="0 0 41 51" version="1.1" xmlns="http://www.w3.org/2000/svg" xmlns:xlink="http://www.w3.org/1999/xlink" xmlns:sketch="http://www.bohemiancoding.com/sketch/ns">
    <!-- Generator: Sketch 3.3 (11970) - http://www.bohemiancoding.com/sketch -->
    <title>pdf</title>
    <desc>Created with Sketch.</desc>
    <defs></defs>
    <g id="Page-1" stroke="none" stroke-width="1" fill="none" fill-rule="evenodd" sketch:type="MSPage">
        <g id="AttachmentIcons" sketch:type="MSArtboardGroup" transform="translate(-138.000000, -85.000000)">
            <g id="pdf" sketch:type="MSLayerGroup" transform="translate(138.000000, 85.000000)">
                <g transform="translate(0.859155, 0.859155)" sketch:type="MSShapeGroup">
                    <g id="PDF">
                        <path d="M39.9295775,47.8198191 C39.9295775,48.9069816 39.1205063,49.7887324 38.1211722,49.7887324 L1.8100804,49.7887324 C0.809769139,49.7887324 0,48.9069816 0,47.8198191 L0,1.96742088 C0,0.880122699 0.809769139,0 1.8100804,0 L30.5105148,0 L39.9295775,10.4126371 L39.9295775,47.8198191 Z" id="Shape" fill="#EA4B36"></path>
                        <path d="M30.5341556,0.0158450697 L30.404887,8.45215437 C30.3879631,9.55663988 31.2738603,10.4604324 32.3788569,10.4619325 L39.9367435,10.4520023 L30.5341556,0.0158450697 Z" id="Path-18" fill="#C33824"></path>
                    </g>
                    <path d="M9.71251291,39.5422535 L9.71230916,39.5422535 C9.33334403,39.5422535 8.96925225,39.4175262 8.6592547,39.1818154 C7.5249061,38.3187479 7.37260694,37.3582339 7.44463069,36.7042164 C7.64256866,34.9058491 9.83526909,33.022539 13.9633404,31.1043012 C15.601244,27.4631318 17.1599928,22.9759455 18.0893743,19.226996 C17.0022944,16.8267962 15.9462857,13.7134703 16.7162369,11.886892 C16.985893,11.247135 17.4602106,10.796794 18.0878462,10.5845405 C18.3366184,10.5004245 18.579584,10.4577465 18.8099174,10.4577465 C19.3591112,10.4577465 19.8498303,10.7011042 20.1918158,11.143075 C20.5134268,11.5586949 21.481316,12.8095848 20.0246433,19.0288997 C21.4928275,22.104611 23.5728572,25.2378809 25.5663971,27.3834593 C26.9944437,27.1210876 28.2230243,26.9883 29.2240219,26.9883 C30.9296707,26.9883 31.963675,27.3918296 32.3847134,28.2219327 C32.7335244,28.9093279 32.5904956,29.7121502 31.9596001,30.6079754 C31.353154,31.4691829 30.5168839,31.9243807 29.5411506,31.9243807 C28.2164025,31.9243807 26.6746664,31.075367 24.9540425,29.3997636 C21.8634392,30.0545044 18.2548149,31.2238617 15.3382096,32.5175329 C14.4274708,34.4777254 13.5549342,36.0566058 12.742604,37.2140793 C11.6282224,38.8024666 10.6652231,39.5422535 9.71251291,39.5422535 L9.71251291,39.5422535 Z M12.6113925,33.8794064 C10.2832018,35.2062486 9.3345665,36.2964501 9.26692326,36.910683 C9.25581917,37.0121595 9.22637806,37.2793881 9.73594355,37.675684 C9.8982262,37.623499 10.8462503,37.1851451 12.6113925,33.8794064 L12.6113925,33.8794064 Z M27.2886511,28.9932373 C28.1759592,29.6857994 28.9606819,30.0645281 29.5413543,30.0645281 C29.7964427,30.0645281 30.1322139,30.0034561 30.4677815,29.526971 C30.6302678,29.2962203 30.6935306,29.1477255 30.7180818,29.0687764 C30.5844253,28.9964407 30.1926242,28.8484627 29.2242257,28.8484627 C28.6743188,28.8484627 28.0207058,28.8977542 27.2886511,28.9932373 L27.2886511,28.9932373 Z M19.3286514,21.6983948 C18.5493279,24.4321652 17.5211303,27.383046 16.4160191,30.0559512 C18.6921529,29.1594026 21.1671416,28.3778677 23.4916649,27.8237767 C22.0211375,26.0915448 20.5521383,23.9282958 19.3286514,21.6983948 L19.3286514,21.6983948 Z M18.7730396,12.3217326 C18.7488958,12.3256594 18.7143611,12.3335129 18.6678054,12.3492201 C18.5613488,12.3852846 18.4754705,12.4447031 18.4023261,12.6183087 C18.1221772,13.2830732 18.3431383,14.5458468 18.7722246,15.9028634 C19.1277591,13.5642522 18.9388878,12.5711872 18.7730396,12.3217326 L18.7730396,12.3217326 Z" id="Shape" fill="#FFFFFF"></path>
                </g>
            </g>
        </g>
    </g>
</svg>