<?xml version="1.0" encoding="UTF-8" standalone="no"?>
<svg width="41px" height="51px" viewBox="0 0 41 51" version="1.1" xmlns="http://www.w3.org/2000/svg" xmlns:xlink="http://www.w3.org/1999/xlink" xmlns:sketch="http://www.bohemiancoding.com/sketch/ns">
    <!-- Generator: Sketch 3.3 (11970) - http://www.bohemiancoding.com/sketch -->
    <title>PPT</title>
    <desc>Created with Sketch.</desc>
    <defs></defs>
    <g id="Page-1" stroke="none" stroke-width="1" fill="none" fill-rule="evenodd" sketch:type="MSPage">
        <g id="AttachmentIcons" sketch:type="MSArtboardGroup" transform="translate(-335.000000, -85.000000)">
            <g id="PPT" sketch:type="MSLayerGroup" transform="translate(335.000000, 85.000000)">
                <g transform="translate(0.929577, 0.859155)" sketch:type="MSShapeGroup">
                    <g id="PDF">
                        <path d="M39.9295775,47.8198191 C39.9295775,48.9069816 39.1205063,49.7887324 38.1211722,49.7887324 L1.8100804,49.7887324 C0.809769139,49.7887324 0,48.9069816 0,47.8198191 L0,1.96742088 C0,0.880122699 0.809769139,0 1.8100804,0 L30.5105148,0 L39.9295775,10.4126371 L39.9295775,47.8198191 Z" id="Shape" fill="#EE9446"></path>
                        <path d="M30.5341556,0.0158450697 L30.404887,8.45215437 C30.3879631,9.55663988 31.2738603,10.4604324 32.3788569,10.4619325 L39.9367435,10.4520023 L30.5341556,0.0158450697 Z" id="Path-18" fill="#C76C1C"></path>
                    </g>
                    <path d="M15.609375,23.4296875 C15.609375,24.2968793 15.3134795,24.9638649 14.7216797,25.4306641 C14.1298799,25.8974633 13.2832086,26.1308594 12.1816406,26.1308594 L11.1738281,26.1308594 L11.1738281,29.5 L10.1777344,29.5 L10.1777344,20.9335938 L12.3984375,20.9335938 C14.5390732,20.9335938 15.609375,21.7656167 15.609375,23.4296875 L15.609375,23.4296875 Z M11.1738281,25.2753906 L12.0703125,25.2753906 C12.9531294,25.2753906 13.5917949,25.1328139 13.9863281,24.8476562 C14.3808613,24.5624986 14.578125,24.1054719 14.578125,23.4765625 C14.578125,22.9101534 14.39258,22.4882826 14.0214844,22.2109375 C13.6503888,21.9335924 13.0722696,21.7949219 12.2871094,21.7949219 L11.1738281,21.7949219 L11.1738281,25.2753906 Z M22.8339844,23.4296875 C22.8339844,24.2968793 22.5380889,24.9638649 21.9462891,25.4306641 C21.3544892,25.8974633 20.507818,26.1308594 19.40625,26.1308594 L18.3984375,26.1308594 L18.3984375,29.5 L17.4023438,29.5 L17.4023438,20.9335938 L19.6230469,20.9335938 C21.7636826,20.9335938 22.8339844,21.7656167 22.8339844,23.4296875 L22.8339844,23.4296875 Z M18.3984375,25.2753906 L19.2949219,25.2753906 C20.1777388,25.2753906 20.8164043,25.1328139 21.2109375,24.8476562 C21.6054707,24.5624986 21.8027344,24.1054719 21.8027344,23.4765625 C21.8027344,22.9101534 21.6171894,22.4882826 21.2460938,22.2109375 C20.8749981,21.9335924 20.2968789,21.7949219 19.5117188,21.7949219 L18.3984375,21.7949219 L18.3984375,25.2753906 Z M27.2636719,29.5 L26.2675781,29.5 L26.2675781,21.8183594 L23.5546875,21.8183594 L23.5546875,20.9335938 L29.9765625,20.9335938 L29.9765625,21.8183594 L27.2636719,21.8183594 L27.2636719,29.5 Z" fill="#FFFFFF"></path>
                </g>
            </g>
        </g>
    </g>
</svg>