<?xml version="1.0" encoding="UTF-8" standalone="no"?>
<svg width="41px" height="51px" viewBox="0 0 41 51" version="1.1" xmlns="http://www.w3.org/2000/svg" xmlns:xlink="http://www.w3.org/1999/xlink" xmlns:sketch="http://www.bohemiancoding.com/sketch/ns">
    <!-- Generator: Sketch 3.3 (11970) - http://www.bohemiancoding.com/sketch -->
    <title>PS</title>
    <desc>Created with Sketch.</desc>
    <defs></defs>
    <g id="Page-1" stroke="none" stroke-width="1" fill="none" fill-rule="evenodd" sketch:type="MSPage">
        <g id="AttachmentIcons" sketch:type="MSArtboardGroup" transform="translate(-511.000000, -85.000000)">
            <g id="PS" sketch:type="MSLayerGroup" transform="translate(511.000000, 85.000000)">
                <g transform="translate(0.929577, 0.859155)" sketch:type="MSShapeGroup">
                    <g id="PDF">
                        <path d="M39.9295775,47.8198191 C39.9295775,48.9069816 39.1205063,49.7887324 38.1211722,49.7887324 L1.8100804,49.7887324 C0.809769139,49.7887324 0,48.9069816 0,47.8198191 L0,1.96742088 C0,0.880122699 0.809769139,0 1.8100804,0 L30.5105148,0 L39.9295775,10.4126371 L39.9295775,47.8198191 Z" id="Shape" fill="#5183BD"></path>
                        <path d="M30.5341556,0.0158450697 L30.404887,8.45215437 C30.3879631,9.55663988 31.2738603,10.4604324 32.3788569,10.4619325 L39.9367435,10.4520023 L30.5341556,0.0158450697 Z" id="Path-18" fill="#366092"></path>
                    </g>
                    <path d="M15.109375,23.4296875 C15.109375,24.2968793 14.8134795,24.9638649 14.2216797,25.4306641 C13.6298799,25.8974633 12.7832086,26.1308594 11.6816406,26.1308594 L10.6738281,26.1308594 L10.6738281,29.5 L9.67773438,29.5 L9.67773438,20.9335938 L11.8984375,20.9335938 C14.0390732,20.9335938 15.109375,21.7656167 15.109375,23.4296875 L15.109375,23.4296875 Z M10.6738281,25.2753906 L11.5703125,25.2753906 C12.4531294,25.2753906 13.0917949,25.1328139 13.4863281,24.8476562 C13.8808613,24.5624986 14.078125,24.1054719 14.078125,23.4765625 C14.078125,22.9101534 13.89258,22.4882826 13.5214844,22.2109375 C13.1503888,21.9335924 12.5722696,21.7949219 11.7871094,21.7949219 L10.6738281,21.7949219 L10.6738281,25.2753906 Z M21.7363281,27.2207031 C21.7363281,27.9746131 21.4628934,28.5624979 20.9160156,28.984375 C20.3691379,29.4062521 19.6269578,29.6171875 18.6894531,29.6171875 C17.673823,29.6171875 16.8925809,29.4863294 16.3457031,29.2246094 L16.3457031,28.2636719 C16.6972674,28.4121101 17.0800761,28.5292964 17.4941406,28.6152344 C17.9082052,28.7011723 18.3183573,28.7441406 18.7246094,28.7441406 C19.3886752,28.7441406 19.8886702,28.6181653 20.2246094,28.3662109 C20.5605486,28.1142566 20.7285156,27.7636741 20.7285156,27.3144531 C20.7285156,27.0175766 20.6689459,26.774415 20.5498047,26.5849609 C20.4306635,26.3955069 20.2314467,26.2207039 19.9521484,26.0605469 C19.6728502,25.9003898 19.2480497,25.718751 18.6777344,25.515625 C17.8808554,25.2304673 17.3115251,24.8925801 16.9697266,24.5019531 C16.627928,24.1113262 16.4570312,23.6015656 16.4570312,22.9726562 C16.4570312,22.3124967 16.7050756,21.7871113 17.2011719,21.3964844 C17.6972681,21.0058574 18.3535115,20.8105469 19.1699219,20.8105469 C20.0214886,20.8105469 20.8046839,20.9667953 21.5195312,21.2792969 L21.2089844,22.1464844 C20.5019496,21.8496079 19.8144565,21.7011719 19.1464844,21.7011719 C18.619138,21.7011719 18.2070327,21.814452 17.9101562,22.0410156 C17.6132798,22.2675793 17.4648438,22.5820292 17.4648438,22.984375 C17.4648438,23.2812515 17.5195307,23.5244131 17.6289062,23.7138672 C17.7382818,23.9033213 17.9228503,24.0771476 18.1826172,24.2353516 C18.4423841,24.3935555 18.8398411,24.5683584 19.375,24.7597656 C20.273442,25.0800797 20.8915999,25.4238263 21.2294922,25.7910156 C21.5673845,26.158205 21.7363281,26.6347627 21.7363281,27.2207031 L21.7363281,27.2207031 Z M30.3261719,25.1347656 C30.3261719,26.5488352 29.9423867,27.6298791 29.1748047,28.3779297 C28.4072227,29.1259803 27.3027416,29.5 25.8613281,29.5 L23.4882812,29.5 L23.4882812,20.9335938 L26.1132812,20.9335938 C27.4453192,20.9335938 28.4804651,21.3027307 29.21875,22.0410156 C29.9570349,22.7793006 30.3261719,23.8105403 30.3261719,25.1347656 L30.3261719,25.1347656 Z M29.2714844,25.1699219 C29.2714844,24.0527288 28.9912137,23.2109403 28.4306641,22.6445312 C27.8701144,22.0781222 27.0371149,21.7949219 25.9316406,21.7949219 L24.484375,21.7949219 L24.484375,28.6386719 L25.6972656,28.6386719 C26.8847716,28.6386719 27.7773408,28.3466826 28.375,27.7626953 C28.9726592,27.178708 29.2714844,26.3144588 29.2714844,25.1699219 L29.2714844,25.1699219 Z" id="PSD" fill="#FFFFFF"></path>
                </g>
            </g>
        </g>
    </g>
</svg>