<?xml version="1.0" encoding="UTF-8" standalone="no"?>
<svg width="41px" height="51px" viewBox="0 0 41 51" version="1.1" xmlns="http://www.w3.org/2000/svg" xmlns:xlink="http://www.w3.org/1999/xlink" xmlns:sketch="http://www.bohemiancoding.com/sketch/ns">
    <!-- Generator: Sketch 3.3 (11970) - http://www.bohemiancoding.com/sketch -->
    <title>TXT</title>
    <desc>Created with Sketch.</desc>
    <defs></defs>
    <g id="Page-1" stroke="none" stroke-width="1" fill="none" fill-rule="evenodd" sketch:type="MSPage">
        <g id="AttachmentIcons" sketch:type="MSArtboardGroup" transform="translate(-235.000000, -85.000000)">
            <g id="TXT" sketch:type="MSLayerGroup" transform="translate(235.000000, 85.000000)">
                <g sketch:type="MSShapeGroup">
                    <g transform="translate(0.859155, 0.859155)">
                        <g id="PDF">
                            <path d="M39.9295775,47.8198191 C39.9295775,48.9069816 39.1205063,49.7887324 38.1211722,49.7887324 L1.8100804,49.7887324 C0.809769139,49.7887324 0,48.9069816 0,47.8198191 L0,1.96742088 C0,0.880122699 0.809769139,0 1.8100804,0 L30.5105148,0 L39.9295775,10.4126371 L39.9295775,47.8198191 Z" id="Shape" fill="#E3E3E3"></path>
                            <path d="M30.5341556,0.0158450697 L30.404887,8.45215437 C30.3879631,9.55663988 31.2738603,10.4604324 32.3788569,10.4619325 L39.9367435,10.4520023 L30.5341556,0.0158450697 Z" id="Path-18" fill="#A1A1A1"></path>
                        </g>
                        <path d="M10,15 C10,14.4477153 10.4378814,14 11.0029293,14 L15.9970707,14 C16.5509732,14 17,14.4438648 17,15 C17,15.5522847 16.5621186,16 15.9970707,16 L11.0029293,16 C10.4490268,16 10,15.5561352 10,15 Z M10,22 C10,21.4477153 10.4553056,21 10.9918031,21 L29.0081969,21 C29.5559546,21 30,21.4438648 30,22 C30,22.5522847 29.5446944,23 29.0081969,23 L10.9918031,23 C10.4440454,23 10,22.5561352 10,22 Z M10,29 C10,28.4477153 10.4553056,28 10.9918031,28 L29.0081969,28 C29.5559546,28 30,28.4438648 30,29 C30,29.5522847 29.5446944,30 29.0081969,30 L10.9918031,30 C10.4440454,30 10,29.5561352 10,29 Z M10,36 C10,35.4477153 10.4553056,35 10.9918031,35 L29.0081969,35 C29.5559546,35 30,35.4438648 30,36 C30,36.5522847 29.5446944,37 29.0081969,37 L10.9918031,37 C10.4440454,37 10,36.5561352 10,36 Z" id="Rectangle-298" fill="#FFFFFF"></path>
                    </g>
                </g>
            </g>
        </g>
    </g>
</svg>